<svg xmlns="http://www.w3.org/2000/svg" xmlns:svg="http://www.w3.org/2000/svg" id="svg3064" width="36" height="36" version="1.1" viewBox="0 0 36 36"><metadata id="metadata3084"/><g id="g3070" clip-path="none" transform="matrix(0.75226807,0,0,0.75226807,4.9755046,4.9398862)"><path id="path3072" fill="#fff" fill-rule="evenodd" stroke="#000" stroke-width=".5" d="m 12.093,7.0608 -2.168,1.8828 -3.0234,0 0,25.061 27.74,0 0,-25.061 -12.639,0 -1.9473,-1.8828 z" color="#000" style="text-indent:0;text-transform:none;block-progression:tb"/></g><g id="g3066" transform="matrix(0.75226807,0,0,0.75226807,19.462688,4.9610946)"><path id="path3068" fill-rule="evenodd" stroke="#000" stroke-width=".25" d="m -13.885347,0.80803696 -2.187499,1.90625004 -3.03125,0 0,25.21875 6.781249,0 0,-18.9375 3.0312505,0 2.1875,-1.90625 7.99999997,0 1.96875003,1.90625 5.9375,0 0,-6.28125 -12.71875,0 -1.9375,-1.90625004 -8.0312505,0 z M 0.64590347,15.245537 l -0.25,0.4375 7.31250003,4.40625 -19.9687505,0 0,0.5 19.9687505,0 -7.31250003,4.5625 0.25,0.40625 8.09375003,-5 0,-0.4375 -8.09375003,-4.875 z"/></g></svg>