<svg xmlns="http://www.w3.org/2000/svg" xmlns:osb="http://www.openswatchbook.org/uri/2009/osb" xmlns:svg="http://www.w3.org/2000/svg" xmlns:xlink="http://www.w3.org/1999/xlink" id="svg3114" width="920" height="680" version="1.1"><defs id="defs3116"><linearGradient id="linearGradient3867"><stop id="stop3869" offset="0" stop-color="#cfcfcf" stop-opacity="1"/><stop id="stop3871" offset="1" stop-color="#cfcfcf" stop-opacity="0"/></linearGradient><linearGradient id="linearGradient3859"><stop id="stop3861" offset="0" stop-color="#fff" stop-opacity="1"/><stop id="stop3863" offset="1" stop-color="#fff" stop-opacity="0"/></linearGradient><linearGradient id="linearGradient6642" osb:paint="gradient"><stop id="stop6644" offset="0" stop-color="#393939" stop-opacity="1"/><stop id="stop6646" offset="1" stop-color="#626262" stop-opacity="1"/></linearGradient><marker id="Arrow1Send" orient="auto" overflow="visible" refX="0" refY="0"><path id="path4070" fill-rule="evenodd" stroke="#000" stroke-width="1pt" d="M 0.0,0.0 L 5.0,-5.0 L -12.5,0.0 L 5.0,5.0 L 0.0,0.0 z" transform="scale(0.2) rotate(180) translate(6,0)"/></marker><marker id="TriangleOutS" orient="auto" overflow="visible" refX="0" refY="0"><path id="path4203" fill-rule="evenodd" stroke="#000" stroke-width="1pt" d="M 5.77,0.0 L -2.88,5.0 L -2.88,-5.0 L 5.77,0.0 z" transform="scale(0.2)"/></marker><marker id="Arrow2Lend" orient="auto" overflow="visible" refX="0" refY="0"><path id="path4076" fill-rule="evenodd" stroke-linejoin="round" stroke-width=".625" d="M 8.7185878,4.0337352 L -2.2072895,0.016013256 L 8.7185884,-4.0017078 C 6.9730900,-1.6296469 6.9831476,1.6157441 8.7185878,4.0337352 z" transform="scale(1.1) rotate(180) translate(1,0)"/></marker><marker id="InfiniteLineEnd" orient="auto" overflow="visible" refX="0" refY="0"><g id="g4290" fill="#000"><circle id="circle4292" cx="3" cy="0" r=".8"/><circle id="circle4294" cx="6.5" cy="0" r=".8"/><circle id="circle4296" cx="10" cy="0" r=".8"/></g></marker><marker id="Arrow2Mend" orient="auto" overflow="visible" refX="0" refY="0"><path id="path4082" fill-rule="evenodd" stroke-linejoin="round" stroke-width=".625" d="M 8.7185878,4.0337352 L -2.2072895,0.016013256 L 8.7185884,-4.0017078 C 6.9730900,-1.6296469 6.9831476,1.6157441 8.7185878,4.0337352 z" transform="scale(0.6) rotate(180) translate(0,0)"/></marker><marker id="TriangleOutM" orient="auto" overflow="visible" refX="0" refY="0"><path id="path4200" fill-rule="evenodd" stroke="#000" stroke-width="1pt" d="M 5.77,0.0 L -2.88,5.0 L -2.88,-5.0 L 5.77,0.0 z" transform="scale(0.4)"/></marker><marker id="Arrow1Lend" orient="auto" overflow="visible" refX="0" refY="0"><path id="path4058" fill-rule="evenodd" stroke="#000" stroke-width="1pt" d="M 0.0,0.0 L 5.0,-5.0 L -12.5,0.0 L 5.0,5.0 L 0.0,0.0 z" transform="scale(0.8) rotate(180) translate(12.5,0)"/></marker><linearGradient id="linearGradient4022"><stop id="stop4024" offset="0" stop-color="#fff" stop-opacity="1"/><stop id="stop4026" offset="1" stop-color="#fff" stop-opacity="0"/></linearGradient><linearGradient id="linearGradient4028" x1="6.274" x2="6.274" y1="-592.608" y2="-517.067" gradientTransform="matrix(1.3871311,0,0,1.3871311,645.61001,286.9591)" gradientUnits="userSpaceOnUse" xlink:href="#linearGradient4022"/><linearGradient id="linearGradient3853" x1="487.808" x2="487.808" y1="273.357" y2="622.861" gradientUnits="userSpaceOnUse" xlink:href="#linearGradient6642"/><linearGradient id="linearGradient3865" x1="321.709" x2="643.131" y1="370.357" y2="373.214" gradientUnits="userSpaceOnUse" xlink:href="#linearGradient3859"/><linearGradient id="linearGradient3873" x1="321.932" x2="746.206" y1="373.004" y2="371.575" gradientUnits="userSpaceOnUse" xlink:href="#linearGradient3867"/></defs><metadata id="metadata3119"/><g id="layer9" display="inline"><rect id="rect6655" width="1037.143" height="762.857" x="-31.429" y="-54.286" fill="#fff" fill-opacity="1" stroke="none"/></g><g id="layer8" display="inline"><rect id="rect6640" width="920.182" height="680.156" x="-.028" y="-.06" fill="url(#linearGradient3853)" fill-opacity="1" fill-rule="nonzero" stroke="none"/></g><g id="layer1" transform="translate(0,-372.36218)"><path id="path4198" fill="#71caff" fill-opacity="1" fill-rule="evenodd" stroke="#fff" stroke-dasharray="none" stroke-linecap="butt" stroke-linejoin="miter" stroke-miterlimit="4" stroke-opacity="1" stroke-width="11.825" d="m 61.699814,682.10119 0,133.04148 c 0,0 1.52879,16.81664 16.81666,16.81664 l 203.328736,0 c 0,0 12.32536,0.10977 12.32536,-21.34812 l 0,-131.53044 c 0,-6.89564 -5.1758,-22.93161 -20.22326,-22.93161 l -77.54654,0 c -10.49207,0 -14.2947,-3.40383 -18.03249,-10.01315 -4.38659,-7.75656 -10.39413,-19.03608 -28.83344,-19.05679 l -25.30794,-0.0285 c -17.35738,0 -22.06809,13.08296 -27.008486,19.08486 -4.61794,5.61017 -7.26889,10.22444 -17.23206,10.01352 -11.7755,0 -18.28654,8.37745 -18.28654,25.95204 z" display="inline"/></g><g id="layer2" display="inline"><path id="path4198-3" fill="#5290aa" fill-opacity="1" fill-rule="evenodd" stroke="#fff" stroke-dasharray="none" stroke-linecap="butt" stroke-linejoin="miter" stroke-miterlimit="4" stroke-opacity="1" stroke-width="12.026" d="m 881.0298,309.78552 0,132.91102 c 0,0 -1.5827,16.80016 -17.41,16.80016 l -210.50293,0 c 0,0 -12.76018,0.10966 -12.76018,-21.32719 l 0,-131.40147 c 0,-6.88888 5.35842,-22.90913 20.93674,-22.90913 l 80.28272,0 c 10.86219,0 14.79906,-3.40049 18.66875,-10.00333 4.5413,-7.74895 10.7608,-19.01741 29.8507,-19.0381 l 26.2009,-0.0285 c 17.9698,0 22.8467,13.07014 27.9615,19.06615 4.7809,5.60467 7.5253,10.21442 17.84,10.0037 12.191,0 18.9318,8.36924 18.9318,25.9266 z" display="inline"/></g><g id="layer3" display="inline"><text id="text3166" x="466.346" y="198.781" fill="#00000f" fill-opacity="1" stroke="none" font-family="Times New Roman" font-size="118.934" font-stretch="normal" font-style="normal" font-variant="normal" font-weight="normal" text-anchor="middle" xml:space="preserve" style="text-align:center;-inkscape-font-specification:Times New Roman"><tspan font-family="Source Sans Pro" style="-inkscape-font-specification:Source Sans Pro Bold" id="tspan3168" x="466.346" y="198.781" fill="#fff" fill-opacity="1" font-stretch="normal" font-style="normal" font-variant="normal" font-weight="bold">Copy folder</tspan></text><text id="text3170" x="468.498" y="575.62" fill="#00000f" fill-opacity="1" stroke="none" font-family="Times New Roman" font-size="252.068" font-stretch="normal" font-style="normal" font-variant="normal" font-weight="normal" text-anchor="middle" xml:space="preserve" style="text-align:center;-inkscape-font-specification:Times New Roman"><tspan id="tspan3172" x="468.498" y="575.62" fill="#fff" fill-opacity="1" font-family="Source Sans Pro" font-size="85.564" font-stretch="normal" font-style="normal" font-variant="normal" font-weight="normal" style="-inkscape-font-specification:Source Sans Pro">All files. All sub-folders</tspan></text></g><g id="layer4"><path id="path4049-2-4" fill="none" stroke="url(#linearGradient3873)" stroke-dasharray="11.483 22.967" stroke-dashoffset="0" stroke-linecap="round" stroke-linejoin="miter" stroke-miterlimit="0" stroke-opacity="1" stroke-width="11.483" marker-end="none" marker-mid="none" d="m 327.67404,339.85893 c 38.15103,0 49.12805,71.82618 83.12371,71.82618 33.99566,0 81.39185,-77.36219 113.29604,-77.36219 31.90419,0 45.32348,44.2726 68.00275,64.94425 6.90722,6.29578 14.67337,10.40239 24.08226,10.40239"/><path id="path4049-2-4-7" fill="none" stroke="url(#linearGradient3865)" stroke-dasharray="none" stroke-dashoffset="0" stroke-linecap="round" stroke-linejoin="miter" stroke-miterlimit="0" stroke-opacity="1" stroke-width="11.641" marker-end="none" marker-mid="none" d="m 327.52988,404.43637 c 38.13078,0 49.10199,-73.85052 83.0796,-73.85052 33.97763,0 71.63714,79.54256 113.23593,79.54256 41.59888,0 51.75537,-77.47022 92.03615,-77.47022"/></g><g id="layer7" display="inline"><rect id="rect3221-5" width="610.338" height="99.081" x="326.429" y="-522.039" fill="url(#linearGradient4028)" fill-opacity="1" stroke="none" transform="matrix(0.70710678,0.70710678,-0.70710678,0.70710678,0,0)"/></g><g id="layer5" display="inline"><rect id="rect3221" width="440" height="71.429" x="437.599" y="-543.464" fill="#5eb947" fill-opacity="1" stroke="none" transform="matrix(0.70710678,0.70710678,-0.70710678,0.70710678,0,0)"/></g><g id="layer6"><text id="text3993" x="664.702" y="-471.078" fill="#5eb947" fill-opacity="1" stroke="#000" stroke-opacity="1" font-family="Open Sans" font-size="72" font-stretch="normal" font-style="normal" font-variant="normal" font-weight="bold" text-anchor="middle" transform="matrix(0.71884815,0.69516713,-0.69516713,0.71884815,0,0)" xml:space="preserve" style="text-align:center;-inkscape-font-specification:Open Sans Bold"><tspan id="tspan3995" x="664.702" y="-471.078" fill="#fff" fill-opacity="1" stroke="#000" stroke-opacity="1">FREE</tspan></text></g></svg>