<svg xmlns="http://www.w3.org/2000/svg" xmlns:osb="http://www.openswatchbook.org/uri/2009/osb" xmlns:svg="http://www.w3.org/2000/svg" xmlns:xlink="http://www.w3.org/1999/xlink" id="svg3114" width="440" height="280" version="1.1"><defs id="defs3116"><linearGradient id="linearGradient6642" osb:paint="gradient"><stop id="stop6644" offset="0" stop-color="#ff8d3c" stop-opacity="1"/><stop id="stop6646" offset="1" stop-color="#fff33c" stop-opacity=".595"/></linearGradient><marker id="Arrow1Send" orient="auto" overflow="visible" refX="0" refY="0"><path id="path4070" fill-rule="evenodd" stroke="#000" stroke-width="1pt" d="M 0,0 5,-5 -12.5,0 5,5 0,0 z" transform="matrix(-0.2,0,0,-0.2,-1.2,0)"/></marker><marker id="TriangleOutS" orient="auto" overflow="visible" refX="0" refY="0"><path id="path4203" fill-rule="evenodd" stroke="#000" stroke-width="1pt" d="m 5.77,0 -8.65,5 0,-10 8.65,5 z" transform="scale(0.2,0.2)"/></marker><marker id="Arrow2Lend" orient="auto" overflow="visible" refX="0" refY="0"><path id="path4076" fill-rule="evenodd" stroke-linejoin="round" stroke-width=".625" d="M 8.7185878,4.0337352 -2.2072895,0.01601326 8.7185884,-4.0017078 c -1.7454984,2.3720609 -1.7354408,5.6174519 -6e-7,8.035443 z" transform="matrix(-1.1,0,0,-1.1,-1.1,0)"/></marker><marker id="InfiniteLineEnd" orient="auto" overflow="visible" refX="0" refY="0"><g id="g4290" fill="#000"><circle id="circle4292" cx="3" cy="0" r=".8"/><circle id="circle4294" cx="6.5" cy="0" r=".8"/><circle id="circle4296" cx="10" cy="0" r=".8"/></g></marker><marker id="Arrow2Mend" orient="auto" overflow="visible" refX="0" refY="0"><path id="path4082" fill-rule="evenodd" stroke-linejoin="round" stroke-width=".625" d="M 8.7185878,4.0337352 -2.2072895,0.01601326 8.7185884,-4.0017078 c -1.7454984,2.3720609 -1.7354408,5.6174519 -6e-7,8.035443 z" transform="scale(-0.6,-0.6)"/></marker><marker id="TriangleOutM" orient="auto" overflow="visible" refX="0" refY="0"><path id="path4200" fill-rule="evenodd" stroke="#000" stroke-width="1pt" d="m 5.77,0 -8.65,5 0,-10 8.65,5 z" transform="scale(0.4,0.4)"/></marker><marker id="Arrow1Lend" orient="auto" overflow="visible" refX="0" refY="0"><path id="path4058" fill-rule="evenodd" stroke="#000" stroke-width="1pt" d="M 0,0 5,-5 -12.5,0 5,5 0,0 z" transform="matrix(-0.8,0,0,-0.8,-10,0)"/></marker><linearGradient id="linearGradient4022"><stop id="stop4024" offset="0" stop-color="#000" stop-opacity="1"/><stop id="stop4026" offset="1" stop-color="#5e7447" stop-opacity="0"/></linearGradient><linearGradient id="linearGradient4028" x1="6.274" x2="5.848" y1="-614.173" y2="-509.117" gradientTransform="matrix(0.48939825,0,0,0.48939825,598.03897,313.28242)" gradientUnits="userSpaceOnUse" xlink:href="#linearGradient4022"/><radialGradient id="radialGradient6663" cx="543.377" cy="401.406" r="1214.805" fx="543.377" fy="401.406" gradientTransform="matrix(0.30670949,-0.00174541,0.00141206,0.25470174,55.655354,440.50387)" gradientUnits="userSpaceOnUse" xlink:href="#linearGradient6642"/><linearGradient id="linearGradient3853" x1="487.808" x2="487.808" y1="273.357" y2="622.861" gradientUnits="userSpaceOnUse" xlink:href="#linearGradient6642-6"/><linearGradient id="linearGradient6642-6" osb:paint="gradient"><stop id="stop6644-0" offset="0" stop-color="#393939" stop-opacity="1"/><stop id="stop6646-6" offset="1" stop-color="#626262" stop-opacity="1"/></linearGradient><linearGradient id="linearGradient4383" x1="487.808" x2="487.808" y1="273.357" y2="622.861" gradientTransform="matrix(0.47851775,0,0,0.41189941,0.15071181,400.25338)" gradientUnits="userSpaceOnUse" xlink:href="#linearGradient6642-6"/><linearGradient id="linearGradient3873" x1="321.932" x2="746.206" y1="373.004" y2="371.575" gradientUnits="userSpaceOnUse" xlink:href="#linearGradient3867"/><linearGradient id="linearGradient3867"><stop id="stop3869" offset="0" stop-color="#cfcfcf" stop-opacity="1"/><stop id="stop3871" offset="1" stop-color="#cfcfcf" stop-opacity="0"/></linearGradient><linearGradient id="linearGradient3865" x1="321.709" x2="643.131" y1="370.357" y2="373.214" gradientTransform="translate(-321.70942,-324.76539)" gradientUnits="userSpaceOnUse" xlink:href="#linearGradient3859"/><linearGradient id="linearGradient3859"><stop id="stop3861" offset="0" stop-color="#fff" stop-opacity="1"/><stop id="stop3863" offset="1" stop-color="#fff" stop-opacity="0"/></linearGradient><linearGradient id="linearGradient4553" x1="321.932" x2="746.206" y1="373.004" y2="371.575" gradientTransform="matrix(0.66205194,0,0,0.66205194,-127.72832,299.45975)" gradientUnits="userSpaceOnUse" xlink:href="#linearGradient3867"/><linearGradient id="linearGradient4582" x1="321.709" x2="643.131" y1="370.357" y2="373.214" gradientTransform="matrix(0.66205194,0,0,0.66205194,-127.72832,299.45975)" gradientUnits="userSpaceOnUse" xlink:href="#linearGradient3859"/><linearGradient id="linearGradient4588" x1="321.932" x2="746.206" y1="373.004" y2="371.575" gradientTransform="matrix(0.66205194,0,0,0.66205194,-127.72832,299.45975)" gradientUnits="userSpaceOnUse" xlink:href="#linearGradient3867"/><linearGradient id="linearGradient4590" x1="321.709" x2="643.131" y1="370.357" y2="373.214" gradientTransform="matrix(0.66205194,0,0,0.66205194,-127.72832,299.45975)" gradientUnits="userSpaceOnUse" xlink:href="#linearGradient3859"/><linearGradient id="linearGradient4028-5" x1="6.274" x2="6.274" y1="-592.608" y2="-517.067" gradientTransform="matrix(1.3871311,0,0,1.3871311,645.61001,286.9591)" gradientUnits="userSpaceOnUse" xlink:href="#linearGradient4022-3"/><linearGradient id="linearGradient4022-3"><stop id="stop4024-1" offset="0" stop-color="#fff" stop-opacity="1"/><stop id="stop4026-7" offset="1" stop-color="#fff" stop-opacity="0"/></linearGradient><linearGradient id="linearGradient4607" x1="6.274" x2="6.274" y1="-592.608" y2="-517.067" gradientTransform="matrix(0.63294112,0,0,0.63294112,602.22629,392.36952)" gradientUnits="userSpaceOnUse" xlink:href="#linearGradient4022-3"/></defs><metadata id="metadata3119"/><g id="layer9" display="none" transform="translate(0,-400)"><rect id="rect6655" width="487.496" height="358.571" x="-25.117" y="369.751" fill="#fff" fill-opacity="1" stroke="none" display="inline"/></g><g id="layer8" display="inline" transform="translate(0,-400)"><rect id="rect6640" width="440.323" height="280.156" x=".137" y="400.229" fill="url(#linearGradient4383)" fill-opacity="1" fill-rule="nonzero" stroke="none" display="inline"/></g><g id="layer1" transform="translate(0,-772.36218)"><path id="path4198" fill="#71caff" fill-opacity="1" fill-rule="evenodd" stroke="#fff" stroke-dasharray="none" stroke-linecap="butt" stroke-linejoin="miter" stroke-miterlimit="4" stroke-opacity="1" stroke-width="4.841" d="m 43.917,908.81537 0,54.45915 c 0,0 0.625795,6.8837 6.883723,6.8837 l 83.230517,0 c 0,0 5.04525,0.045 5.04525,-8.73862 l 0,-53.84062 c 0,-2.82266 -2.11866,-9.38683 -8.27818,-9.38683 l -31.74286,0 c -4.294828,0 -5.851394,-1.39332 -7.381424,-4.09877 -1.7956,-3.17507 -4.254728,-7.79222 -11.802663,-7.8007 l -10.359547,-0.0117 c -7.105063,0 -9.033338,5.35537 -11.055641,7.81218 -1.890307,2.29647 -2.975449,4.18527 -7.053767,4.09893 -4.820181,0 -7.485408,3.42922 -7.485408,10.62321 z" display="inline"/></g><g id="layer2" transform="translate(0,-400)"><path id="path4198-3" fill="#5290aa" fill-opacity="1" fill-rule="evenodd" stroke="#fff" stroke-dasharray="none" stroke-linecap="butt" stroke-linejoin="miter" stroke-miterlimit="4" stroke-opacity="1" stroke-width="4.869" d="m 408.01208,536.13433 0,54.87236 c 0,0 -0.62829,6.93595 -6.91138,6.93595 l -83.56466,0 c 0,0 -5.06538,0.0463 -5.06538,-8.80491 l 0,-54.24914 c 0,-2.8441 2.12709,-9.4581 8.31136,-9.4581 l 31.87036,0 c 4.31194,0 5.87481,-1.40377 7.41098,-4.12987 1.80275,-3.19899 4.27178,-7.85126 11.85009,-7.85986 l 10.40104,-0.0121 c 7.13364,0 9.06958,5.39611 11.10003,7.87146 1.8979,2.31403 2.98743,4.21705 7.08215,4.13005 4.83956,0 7.51541,3.45533 7.51541,10.70375 z" display="inline"/></g><g id="layer3" display="inline" transform="translate(0,-400)"><text id="text3166" x="224.318" y="493.867" fill="#00000f" fill-opacity="1" stroke="none" display="inline" font-family="Times New Roman" font-size="65.475" font-stretch="normal" font-style="normal" font-variant="normal" font-weight="normal" text-anchor="middle" xml:space="preserve" style="text-align:center;-inkscape-font-specification:Times New Roman"><tspan font-family="Source Sans Pro" style="-inkscape-font-specification:Source Sans Pro Bold" id="tspan3168" x="224.318" y="493.867" fill="#fff" fill-opacity="1" font-stretch="normal" font-style="normal" font-variant="normal" font-weight="bold">Copy folder</tspan></text><text id="text3170" x="220.835" y="649.385" fill="#00000f" fill-opacity="1" stroke="none" display="inline" font-family="Times New Roman" font-size="118.638" font-stretch="normal" font-style="normal" font-variant="normal" font-weight="normal" text-anchor="middle" xml:space="preserve" style="text-align:center;-inkscape-font-specification:Times New Roman"><tspan id="tspan3172" x="220.835" y="649.385" fill="#fff" fill-opacity="1" font-family="Source Sans Pro" font-size="40.271" font-stretch="normal" font-style="normal" font-variant="normal" font-weight="normal" style="-inkscape-font-specification:Source Sans Pro">All files. All sub-folders</tspan></text></g><g id="layer4" display="inline" transform="translate(0,-400)"><g id="g4584" transform="matrix(0.76112752,0,0,0.76112752,87.036341,146.02503)"><path id="path4049-2-4" fill="none" stroke="url(#linearGradient4588)" stroke-dasharray="7.603 15.205" stroke-dashoffset="0" stroke-linecap="round" stroke-linejoin="miter" stroke-miterlimit="0" stroke-opacity="1" stroke-width="7.603" marker-end="none" marker-mid="none" d="m 89.208914,524.46402 c 25.257956,0 32.525316,47.55266 55.032206,47.55266 22.5069,0 53.88564,-51.21779 75.00787,-51.21779 21.12223,0 30.0065,29.31076 45.02135,42.99647 4.57294,4.16813 9.71453,6.88692 15.94371,6.88692"/><path id="path4049-2-4-7" fill="none" stroke="url(#linearGradient4590)" stroke-dasharray="none" stroke-dashoffset="0" stroke-linecap="round" stroke-linejoin="miter" stroke-miterlimit="0" stroke-opacity="1" stroke-width="7.707" marker-end="none" marker-mid="none" d="m 89.113472,567.21764 c 25.244558,0 32.508068,-48.89288 55.003008,-48.89288 22.49496,0 47.42751,52.6613 74.96807,52.6613 27.54062,0 34.26474,-51.2893 60.93271,-51.2893"/></g></g><g id="layer7" display="inline" transform="translate(0,-400)"><rect id="rect3221-5" width="278.494" height="45.21" x="456.586" y="23.228" fill="url(#linearGradient4607)" fill-opacity="1" stroke="none" display="inline" transform="matrix(0.70710678,0.70710678,-0.70710678,0.70710678,0,0)"/></g><g id="layer5" transform="translate(0,-400)"><rect id="rect3221" width="235.978" height="38.308" x="477.844" y="5.25" fill="#5eb947" fill-opacity="1" stroke="none" display="inline" transform="matrix(0.70710678,0.70710678,-0.70710678,0.70710678,0,0)"/></g><g id="layer6" transform="translate(0,-400)"><text id="text3993" x="596.231" y="47.076" fill="#5eb947" fill-opacity="1" stroke="#000" stroke-opacity="1" stroke-width=".493" font-family="Open Sans" font-size="35.51" font-stretch="normal" font-style="normal" font-variant="normal" font-weight="bold" text-anchor="middle" transform="matrix(0.71884815,0.69516713,-0.69516713,0.71884815,0,0)" xml:space="preserve" style="text-align:center;-inkscape-font-specification:Open Sans Bold"><tspan id="tspan3995" x="596.231" y="47.076" fill="#fff" fill-opacity="1" stroke="#000" stroke-opacity="1" stroke-width=".493">FREE</tspan></text></g></svg>